<svg height="100" viewBox="0 0 50 50" width="100" xmlns="http://www.w3.org/2000/svg"><path d="m25.009 1.982c-12.687 0-23.009 10.322-23.009 23.009s10.322 23.009 23.009 23.009 23.009-10.321 23.009-23.009-10.322-23.009-23.009-23.009zm9.739 33.351c-.289.434-.765.668-1.25.668-.286 0-.575-.081-.831-.252-2.473-1.649-6.667-2.749-10.167-2.748-3.714.002-6.498.914-6.526.923-.784.266-1.635-.162-1.897-.948s.163-1.636.949-1.897c.132-.044 3.279-1.075 7.474-1.077 3.5-.002 8.368.942 11.832 3.251.69.46.876 1.391.416 2.08zm2.992-6.14c-.325.522-.886.809-1.459.809-.31 0-.624-.083-.906-.26-4.484-2.794-9.092-3.385-13.062-3.35-4.482.04-8.066.895-8.127.913-.907.258-1.861-.272-2.12-1.183-.259-.913.272-1.862 1.184-2.12.277-.079 3.854-.959 8.751-1 4.465-.037 10.029.61 15.191 3.826.803.5 1.05 1.56.548 2.365zm2.985-7.18c-.373.634-1.041.987-1.727.987-.344 0-.692-.089-1.011-.275-5.226-3.068-11.58-3.719-15.99-3.725-.021 0-.042 0-.063 0-5.333 0-9.44.938-9.481.948-1.078.247-2.151-.419-2.401-1.495-.25-1.075.417-2.149 1.492-2.4.185-.043 4.573-1.053 10.39-1.053h.069c4.905.007 12.011.753 18.01 4.275.952.56 1.271 1.786.712 2.738z"/></svg>